<svg width="256" height="256" viewBox="0 0 256 256" fill="none" xmlns="http://www.w3.org/2000/svg">
<path d="M127.535 114.972C123.758 114.972 120.065 113.871 116.922 111.807C113.779 109.744 111.327 106.811 109.875 103.378C108.423 99.9452 108.036 96.1657 108.762 92.5163C109.488 88.8668 111.296 85.5107 113.956 82.871C116.617 80.2313 120.012 78.4262 123.713 77.6831C127.414 76.9401 131.256 77.2924 134.754 78.6957C138.252 80.0989 141.25 82.4904 143.37 85.5685C145.49 88.6466 146.636 92.2736 146.666 95.9923V95.9923C146.724 98.4023 146.3 100.8 145.418 103.049C144.535 105.297 143.211 107.352 141.521 109.097C139.831 110.841 137.809 112.241 135.569 113.216C133.33 114.191 130.917 114.722 128.469 114.778C128.16 114.827 127.845 114.827 127.535 114.778V114.972Z" fill="#4EA8DE"/>
<path d="M127.535 24.1415C148.999 51.3908 160.457 84.9938 160.042 119.475V127.705L167.124 132.015C176.274 137.554 183.098 146.145 186.353 156.223C183.495 154.119 180.506 152.195 177.402 150.461L158.517 139.858L155.124 161.258C154.83 163.15 154.436 165.024 153.944 166.875H101.027C100.241 164.454 99.6012 162.033 99.0111 159.515L94.7325 140.149L77.3232 149.832C74.4147 151.458 71.6066 153.253 68.9136 155.206C72.2316 145.245 78.9133 136.702 87.8475 130.998L94.585 126.689V119.039C94.7065 84.6979 106.303 51.3506 127.584 24.1415H127.535ZM127.584 4C126.48 4.00268 125.415 4.3982 124.584 5.11359L124.141 5.50093C95.7828 36.7263 80.0356 77.1037 79.8805 118.99C67.8465 126.677 58.9386 138.283 54.7137 151.779C50.4887 165.275 51.2153 179.804 56.7665 192.826C62.6143 180.111 72.39 169.538 84.7 162.614C85.9346 167.879 87.5787 173.043 89.6179 178.059C89.8765 179.024 90.4497 179.878 91.2494 180.49C92.0491 181.102 93.031 181.439 94.044 181.448H162.304C163.681 181.448 165.058 180.141 165.747 178.108C167.737 173.338 169.124 168.346 169.878 163.244C182.211 170.139 191.995 180.72 197.811 193.456C203.697 180.498 204.609 165.877 200.376 152.307C196.143 138.738 187.054 127.141 174.796 119.668C175.282 77.5345 159.618 36.7686 130.928 5.50093C130.501 5.03065 129.978 4.65402 129.393 4.39546C128.809 4.13689 128.176 4.00216 127.535 4H127.584Z" fill="#4EA8DE"/>
<path d="M154.141 193.504C152.91 193.465 151.684 193.669 150.535 194.103C149.385 194.537 148.335 195.193 147.447 196.031C146.558 196.87 145.848 197.875 145.359 198.988C144.871 200.1 144.612 201.298 144.6 202.51V231.076C144.6 233.567 145.605 235.956 147.394 237.718C149.184 239.479 151.61 240.469 154.141 240.469C156.671 240.469 159.098 239.479 160.887 237.718C162.676 235.956 163.681 233.567 163.681 231.076V202.897C163.721 201.69 163.515 200.487 163.078 199.358C162.64 198.229 161.978 197.198 161.131 196.324C160.285 195.449 159.27 194.75 158.145 194.266C157.021 193.782 155.81 193.523 154.583 193.504H154.141Z" fill="#5E60CE"/>
<path d="M101.028 193.504C99.7762 193.439 98.5243 193.622 97.3463 194.043C96.1683 194.464 95.0884 195.114 94.1707 195.954C93.253 196.794 92.5164 197.808 92.0047 198.934C91.4929 200.06 91.2165 201.276 91.1919 202.51V231.076C91.1919 233.567 92.1971 235.956 93.9863 237.717C95.7755 239.479 98.2022 240.469 100.733 240.469C103.263 240.469 105.69 239.479 107.479 237.717C109.268 235.956 110.273 233.567 110.273 231.076V202.897C110.313 201.689 110.107 200.486 109.67 199.358C109.232 198.229 108.57 197.198 107.723 196.324C106.877 195.449 105.861 194.75 104.737 194.266C103.613 193.782 102.402 193.523 101.175 193.504H101.028Z" fill="#5E60CE"/>
<path d="M126.846 193.504C125.619 193.478 124.399 193.691 123.255 194.13C122.112 194.568 121.067 195.225 120.181 196.061C119.295 196.897 118.585 197.897 118.092 199.004C117.598 200.11 117.331 201.302 117.306 202.51V241.873C117.306 244.364 118.311 246.753 120.1 248.515C121.889 250.276 124.316 251.266 126.846 251.266C129.377 251.266 131.804 250.276 133.593 248.515C135.382 246.753 136.387 244.364 136.387 241.873V203.139C136.426 201.932 136.221 200.729 135.783 199.6C135.346 198.472 134.684 197.44 133.837 196.566C132.99 195.692 131.975 194.992 130.851 194.508C129.727 194.024 128.516 193.765 127.289 193.746L126.846 193.504Z" fill="#5E60CE"/>
</svg>
