<svg width="251" height="83" viewBox="0 0 251 83" fill="none" xmlns="http://www.w3.org/2000/svg">
<path d="M40.625 20.4545V36.2216H0.734375V20.4545H40.625ZM8.46023 5.94886H30.2188V61.5277C30.2188 62.3686 30.3633 63.0781 30.6523 63.6562C30.9414 64.2081 31.3881 64.6285 31.9925 64.9176C32.5969 65.1804 33.3722 65.3118 34.3182 65.3118C34.9751 65.3118 35.7372 65.233 36.6044 65.0753C37.4979 64.9176 38.1548 64.7862 38.5753 64.6811L41.7287 79.9751C40.7564 80.2642 39.3636 80.619 37.5504 81.0394C35.7635 81.4599 33.6349 81.7358 31.1648 81.8672C26.1719 82.13 21.9805 81.6175 18.5906 80.3299C15.2006 79.016 12.6516 76.9531 10.9435 74.1413C9.23544 71.3295 8.40767 67.8082 8.46023 63.5774V5.94886ZM78.0225 82.1037C71.4529 82.1037 65.8293 80.8029 61.1517 78.2013C56.4742 75.5735 52.8872 71.9208 50.3907 67.2433C47.8943 62.5394 46.646 57.0866 46.646 50.8849C46.646 44.6832 47.8943 39.2436 50.3907 34.566C52.8872 29.8622 56.4742 26.2095 61.1517 23.6079C65.8293 20.9801 71.4529 19.6662 78.0225 19.6662C84.5921 19.6662 90.2156 20.9801 94.8932 23.6079C99.5708 26.2095 103.158 29.8622 105.654 34.566C108.151 39.2436 109.399 44.6832 109.399 50.8849C109.399 57.0866 108.151 62.5394 105.654 67.2433C103.158 71.9208 99.5708 75.5735 94.8932 78.2013C90.2156 80.8029 84.5921 82.1037 78.0225 82.1037ZM78.1801 66.0213C80.0196 66.0213 81.6095 65.4038 82.9497 64.1687C84.2899 62.9336 85.3279 61.1729 86.0637 58.8867C86.7995 56.6005 87.1673 53.8807 87.1673 50.7273C87.1673 47.5476 86.7995 44.8278 86.0637 42.5678C85.3279 40.2816 84.2899 38.521 82.9497 37.2859C81.6095 36.0508 80.0196 35.4332 78.1801 35.4332C76.2355 35.4332 74.5669 36.0508 73.1741 37.2859C71.7813 38.521 70.7171 40.2816 69.9813 42.5678C69.2455 44.8278 68.8776 47.5476 68.8776 50.7273C68.8776 53.8807 69.2455 56.6005 69.9813 58.8867C70.7171 61.1729 71.7813 62.9336 73.1741 64.1687C74.5669 65.4038 76.2355 66.0213 78.1801 66.0213Z" fill="#4EA8DE"/>
<path d="M140.145 81.7884C135.835 81.7884 131.867 80.6584 128.241 78.3984C124.64 76.1385 121.75 72.7092 119.569 68.1104C117.414 63.5117 116.336 57.7173 116.336 50.7273C116.336 43.4219 117.466 37.483 119.726 32.9105C122.013 28.3381 124.956 24.9876 128.556 22.859C132.182 20.7305 135.993 19.6662 139.987 19.6662C142.983 19.6662 145.611 20.1918 147.87 21.2429C150.13 22.2678 152.022 23.6474 153.547 25.3817C155.071 27.0898 156.227 28.9687 157.015 31.0185H157.331V0.272725H179.089V81H157.488V71.0668H157.015C156.174 73.1165 154.966 74.956 153.389 76.5852C151.839 78.1882 149.946 79.4627 147.713 80.4087C145.505 81.3285 142.983 81.7884 140.145 81.7884ZM148.186 65.0753C150.183 65.0753 151.891 64.4972 153.31 63.3409C154.755 62.1584 155.859 60.5028 156.621 58.3743C157.41 56.2195 157.804 53.6705 157.804 50.7273C157.804 47.7315 157.41 45.1694 156.621 43.0408C155.859 40.886 154.755 39.2436 153.31 38.1136C151.891 36.9574 150.183 36.3793 148.186 36.3793C146.189 36.3793 144.481 36.9574 143.062 38.1136C141.669 39.2436 140.591 40.886 139.829 43.0408C139.093 45.1694 138.726 47.7315 138.726 50.7273C138.726 53.723 139.093 56.2983 139.829 58.4531C140.591 60.5817 141.669 62.2241 143.062 63.3803C144.481 64.5103 146.189 65.0753 148.186 65.0753ZM218.94 82.1037C212.371 82.1037 206.747 80.8029 202.07 78.2013C197.392 75.5735 193.805 71.9208 191.309 67.2433C188.812 62.5394 187.564 57.0866 187.564 50.8849C187.564 44.6832 188.812 39.2436 191.309 34.566C193.805 29.8622 197.392 26.2095 202.07 23.6079C206.747 20.9801 212.371 19.6662 218.94 19.6662C225.51 19.6662 231.134 20.9801 235.811 23.6079C240.489 26.2095 244.076 29.8622 246.572 34.566C249.069 39.2436 250.317 44.6832 250.317 50.8849C250.317 57.0866 249.069 62.5394 246.572 67.2433C244.076 71.9208 240.489 75.5735 235.811 78.2013C231.134 80.8029 225.51 82.1037 218.94 82.1037ZM219.098 66.0213C220.938 66.0213 222.527 65.4038 223.868 64.1687C225.208 62.9336 226.246 61.1729 226.982 58.8867C227.717 56.6005 228.085 53.8807 228.085 50.7273C228.085 47.5476 227.717 44.8278 226.982 42.5678C226.246 40.2816 225.208 38.521 223.868 37.2859C222.527 36.0508 220.938 35.4332 219.098 35.4332C217.153 35.4332 215.485 36.0508 214.092 37.2859C212.699 38.521 211.635 40.2816 210.899 42.5678C210.163 44.8278 209.796 47.5476 209.796 50.7273C209.796 53.8807 210.163 56.6005 210.899 58.8867C211.635 61.1729 212.699 62.9336 214.092 64.1687C215.485 65.4038 217.153 66.0213 219.098 66.0213Z" fill="#5E60CE"/>
</svg>
